PathFileType	4	(X/Y/Z)	/Users/itak/Documents/Research/Walk-IL/dataset/trc/00383_00012.trc
DataRate	CameraRate	NumFrames	NumMarkers	Units	OrigDataRate	OrigDataStartFrame	OrigNumFrames
100.000000	100.000000	4	53	mm	100.000000	488	558
Frame#	Time	RPSI			LPSI			L3			STRN			T10			C7			CLAV			RBAK			LBAK			LSHO			LUPA			LAEL			LAOL			LWTS			LWPS			LFRA			LIFD			LHPS			LHTS			RSHO			RUPA			RAEL			RAOL			RWTS			RWPS			RFRA			RIFD			RHTS			RHPS			RBHD			LFHD			RFHD			LBHD			LHIP			RHIP			RASI			LASI			LKNE			LTHI			LANK			LTIP			LTOE			LMT1			LMT5			LHEE			RKNE			RTHI			RANK			RTIP			RTOE			RMT1			RMT5			RHEE			
		X1	Y1	Z1	X2	Y2	Z2	X3	Y3	Z3	X4	Y4	Z4	X5	Y5	Z5	X6	Y6	Z6	X7	Y7	Z7	X8	Y8	Z8	X9	Y9	Z9	X10	Y10	Z10	X11	Y11	Z11	X12	Y12	Z12	X13	Y13	Z13	X14	Y14	Z14	X15	Y15	Z15	X16	Y16	Z16	X17	Y17	Z17	X18	Y18	Z18	X19	Y19	Z19	X20	Y20	Z20	X21	Y21	Z21	X22	Y22	Z22	X23	Y23	Z23	X24	Y24	Z24	X25	Y25	Z25	X26	Y26	Z26	X27	Y27	Z27	X28	Y28	Z28	X29	Y29	Z29	X30	Y30	Z30	X31	Y31	Z31	X32	Y32	Z32	X33	Y33	Z33	X34	Y34	Z34	X35	Y35	Z35	X36	Y36	Z36	X37	Y37	Z37	X38	Y38	Z38	X39	Y39	Z39	X40	Y40	Z40	X41	Y41	Z41	X42	Y42	Z42	X43	Y43	Z43	X44	Y44	Z44	X45	Y45	Z45	X46	Y46	Z46	X47	Y47	Z47	X48	Y48	Z48	X49	Y49	Z49	X50	Y50	Z50	X51	Y51	Z51	X52	Y52	Z52	X53	Y53	Z53	

489	4.88	1076.278198242188	965.6842651367188	137.2204132080078	1064.296264648438	956.6651611328125	5.674345970153809	1063.974975585938	1038.803955078125	73.78179931640625	1288.896362304688	1215.0576171875	68.69002532958984	1046.463012695312	1141.766723632812	66.43959808349609	1065.557983398438	1393.823852539062	53.94582748413086	1225.234985351562	1328.754150390625	65.29328155517578	1033.214965820312	1243.970458984375	119.9717788696289	1052.39404296875	1355.710083007812	-46.8648567199707	1138.0712890625	1376.129028320312	-96.90304565429688	1111.338256835938	1256.963989257812	-161.4052734375	1126.329345703125	1063.4892578125	-189.7394256591797	1077.5302734375	1038.530395507812	-122.2625274658203	1247.384765625	867.0711059570312	-172.0800628662109	1186.008911132812	845.19970703125	-223.4801483154297	1148.636108398438	963.2048950195312	-204.3317413330078	1269.905883789062	689.316162109375	-178.8420257568359	1213.932739257812	762.71728515625	-221.9898986816406	1273.805908203125	773.7872314453125	-199.9761657714844	1115.883422851562	1378.927978515625	214.0467224121094	1099.13671875	1313.846557617188	272.033203125	1112.384887695312	1054.3134765625	321.0089111328125	1109.8193359375	1037.310302734375	226.6867370605469	1288.797973632812	877.0703125	322.9763488769531	1242.309326171875	858.3284912109375	377.0181579589844	1147.764038085938	995.3702392578125	343.3940124511719	1326.27392578125	708.6729736328125	336.838623046875	1327.848022460938	779.7291870117188	352.815673828125	1265.96435546875	772.400390625	383.6798095703125	1109.442993164062	1588.888427734375	136.8052825927734	1250.630737304688	1588.237670898438	-4.046205043792725	1241.884765625	1597.956909179688	118.1680221557617	1102.986694335938	1573.90869140625	-23.34708976745605	1148.601440429688	952.836669921875	-111.1623382568359	1165.893920898438	949.4706420898438	247.7025299072266	1291.101196289062	969.0834350585938	187.8076477050781	1262.203979492188	963.9456176757812	-74.89227294921875	1241.71875	466.27392578125	-92.62505340576172	1220.30224609375	607.28955078125	-103.0003280639648	1115.932373046875	30.17063903808594	-64.99077606201172	1176.477416992188	237.9084930419922	-90.95211791992188	1328.416748046875	33.86680603027344	3.861667633056641	1248.712280273438	35.63082504272461	30.8765983581543	1244.370971679688	25.73803329467773	-73.75337219238281	1076.650268554688	32.12685775756836	-9.49716854095459	1204.658813476562	463.9461975097656	204.8033599853516	1247.880859375	726.1214599609375	237.1676940917969	1128.914672851562	44.98378372192383	161.7999114990234	1206.500366210938	336.8502502441406	184.5195922851562	1303.922729492188	27.75135612487793	90.02198028564453	1226.072875976562	34.04706192016602	65.08219146728516	1212.227294921875	34.81245040893555	163.8616790771484	1053.178588867188	37.37264633178711	113.2391891479492	
490	4.89	1077.807373046875	966.3117065429688	136.5584259033203	1065.677978515625	957.5335083007812	5.10694694519043	1065.316162109375	1039.025756835938	73.16940307617188	1290.343505859375	1215.241455078125	67.72948455810547	1047.76318359375	1142.005859375	65.74868011474609	1066.963500976562	1394.041625976562	53.09856414794922	1226.745971679688	1329.013671875	64.40065765380859	1034.670288085938	1244.259887695312	119.0397415161133	1053.779541015625	1355.948608398438	-47.73336791992188	1139.473510742188	1376.465576171875	-97.69936370849609	1113.201782226562	1257.402221679688	-162.5550994873047	1129.685791015625	1064.099365234375	-191.6956787109375	1080.950073242188	1038.600463867188	-124.3856201171875	1253.246948242188	869.2025756835938	-174.6689758300781	1192.288818359375	846.8370971679688	-226.2665557861328	1153.251953125	964.1802978515625	-206.6596069335938	1278.921020507812	692.5319213867188	-182.6970977783203	1221.5185546875	764.8172607421875	-225.2584381103516	1281.201416015625	776.7236328125	-203.1739501953125	1117.379272460938	1379.105102539062	213.1759185791016	1100.398559570312	1314.065551757812	271.0308532714844	1112.165405273438	1054.337280273438	318.9639587402344	1108.923217773438	1037.775756835938	224.3562164306641	1285.342163085938	873.8782348632812	320.7062683105469	1238.394165039062	855.8636474609375	374.5834045410156	1146.496704101562	994.8032836914062	341.3179931640625	1319.141967773438	704.6063842773438	333.6485595703125	1322.34326171875	775.536376953125	350.0475463867188	1260.267700195312	769.3756713867188	380.8263549804688	1110.876098632812	1589.129760742188	135.9138946533203	1252.109497070312	1588.446899414062	-4.922679901123047	1243.34130859375	1598.127807617188	117.3020324707031	1104.452758789062	1574.201782226562	-24.26462745666504	1149.509033203125	953.3079223632812	-111.6982803344727	1167.303833007812	949.6641235351562	246.7959289550781	1292.806396484375	969.0196533203125	186.584228515625	1263.426147460938	964.576171875	-76.34464263916016	1239.373657226562	466.4029235839844	-93.92036437988281	1219.53955078125	607.5799560546875	-104.0913543701172	1115.85400390625	29.88586616516113	-65.09186553955078	1175.21923828125	237.8683929443359	-91.57878112792969	1328.325805664062	33.85516357421875	3.837507009506226	1248.668823242188	35.79033279418945	30.75537300109863	1244.366455078125	25.64542198181152	-73.86949157714844	1076.641967773438	32.02923583984375	-9.576328277587891	1205.117065429688	463.9732055664062	204.2092132568359	1249.036254882812	726.0803833007812	236.2784118652344	1128.920654296875	45.05289077758789	161.7737579345703	1206.861450195312	336.9162292480469	184.1302795410156	1303.925537109375	27.72861671447754	90.01552581787109	1226.076904296875	34.04738998413086	65.08134460449219	1212.239013671875	34.81505584716797	163.8446502685547	1053.123413085938	37.38894653320312	113.1473236083984	
491	4.9	1079.148071289062	966.83935546875	135.8010559082031	1067.025634765625	958.2417602539062	4.482538223266602	1066.60009765625	1039.201782226562	72.48406219482422	1291.754516601562	1215.350952148438	66.78548431396484	1048.93017578125	1142.233520507812	65.03379821777344	1068.346557617188	1394.225219726562	52.27465438842773	1228.2333984375	1329.213745117188	63.51302719116211	1036.10205078125	1244.531372070312	118.1552124023438	1055.12353515625	1356.145629882812	-48.57017517089844	1140.8369140625	1376.743774414062	-98.47173309326172	1115.000610351562	1257.770141601562	-163.6694641113281	1132.961669921875	1064.652587890625	-193.615966796875	1084.347412109375	1038.6142578125	-126.4265060424805	1258.993041992188	871.3323364257812	-177.3132629394531	1198.385375976562	848.427001953125	-229.0071563720703	1157.740966796875	965.1025390625	-208.951416015625	1287.701171875	695.595703125	-186.5162811279297	1228.897094726562	766.9022827148438	-228.5103454589844	1288.407348632812	779.6001586914062	-206.4143371582031	1118.88037109375	1379.238647460938	212.3411865234375	1101.678955078125	1314.241088867188	270.0679931640625	1111.999389648438	1054.333984375	316.9874267578125	1108.474609375	1038.16552734375	222.2455902099609	1281.879272460938	870.75537109375	318.4149475097656	1234.49951171875	853.459716796875	372.1443176269531	1145.261108398438	994.2249145507812	339.2979125976562	1312.048583984375	700.7051391601562	330.3966369628906	1316.838989257812	771.4657592773438	347.2223205566406	1254.636108398438	766.4591674804688	377.9548950195312	1112.281005859375	1589.330200195312	135.0389404296875	1253.535766601562	1588.629638671875	-5.80305814743042	1244.74951171875	1598.280883789062	116.4196090698242	1105.863159179688	1574.421630859375	-25.17260551452637	1150.4384765625	953.788330078125	-112.3217544555664	1168.383911132812	949.8204956054688	245.7961578369141	1294.442993164062	968.9260864257812	185.3856506347656	1264.6279296875	965.1500854492188	-77.82938385009766	1237.090698242188	466.4730834960938	-95.1673583984375	1218.92578125	607.762939453125	-105.1533889770508	1115.786865234375	29.62814903259277	-65.16888427734375	1174.000244140625	237.7830200195312	-92.16836547851562	1328.261840820312	33.85482406616211	3.819984674453735	1248.626220703125	35.93452835083008	30.64386558532715	1244.35546875	25.56615447998047	-73.96861267089844	1076.634643554688	31.93816184997559	-9.629439353942871	1205.42724609375	463.9960327148438	203.6955871582031	1250.055541992188	726.02734375	235.4257202148438	1128.90234375	45.10808944702148	161.7493743896484	1207.104736328125	336.9674377441406	183.8054046630859	1303.920776367188	27.71569633483887	90.01197052001953	1226.075439453125	34.05880355834961	65.08207702636719	1212.23681640625	34.81355285644531	163.8454284667969	1053.072143554688	37.37798309326172	113.0689544677734	
492	4.91	1080.319458007812	967.26025390625	134.9678649902344	1068.33349609375	958.8107299804688	3.809823036193848	1067.8759765625	1039.340454101562	71.75008392333984	1293.133056640625	1215.39892578125	65.84955596923828	1049.99072265625	1142.4482421875	64.29412078857422	1069.703735351562	1394.379760742188	51.46500778198242	1229.696411132812	1329.356567382812	62.63132858276367	1037.496459960938	1244.777954101562	117.307243347168	1056.431030273438	1356.308715820312	-49.38372421264648	1142.164672851562	1376.97314453125	-99.22647094726562	1116.744873046875	1258.074951171875	-164.7508544921875	1136.183837890625	1065.154541015625	-195.4876861572266	1087.724609375	1038.580444335938	-128.3917083740234	1264.622192382812	873.4722900390625	-180.0066680908203	1204.286010742188	849.9677124023438	-231.6922149658203	1162.11328125	965.9828491210938	-211.1979675292969	1296.240844726562	698.5579223632812	-190.3285369873047	1236.048950195312	768.9685668945312	-231.7306976318359	1295.413452148438	782.4287719726562	-209.6921234130859	1120.371459960938	1379.330932617188	211.5373992919922	1102.970947265625	1314.3740234375	269.137939453125	1111.87451171875	1054.301879882812	315.079833984375	1108.287231445312	1038.48681640625	220.3051910400391	1278.4453125	867.713623046875	316.1209716796875	1230.647583007812	851.1226806640625	369.7133483886719	1144.06103515625	993.6370849609375	337.3356018066406	1305.031372070312	696.9808959960938	327.1051025390625	1311.35986328125	767.5304565429688	344.3583984375	1249.076782226562	763.6543579101562	375.0752258300781	1113.660766601562	1589.495849609375	134.1817321777344	1254.914184570312	1588.7841796875	-6.686054229736328	1246.110961914062	1598.419799804688	115.5210647583008	1107.221801757812	1574.571533203125	-26.06616020202637	1151.3837890625	954.2722778320312	-113.0330123901367	1169.152709960938	949.9332275390625	244.6925354003906	1296.0205078125	968.7963256835938	184.2082366943359	1265.803100585938	965.6511840820312	-79.33283996582031	1234.863159179688	466.4937133789062	-96.35150146484375	1218.400024414062	607.8529052734375	-106.1996994018555	1115.730224609375	29.40678977966309	-65.21977996826172	1172.810668945312	237.6510314941406	-92.71277618408203	1328.231689453125	33.87110900878906	3.808383703231812	1248.586059570312	36.04953384399414	30.55236053466797	1244.338012695312	25.50516128540039	-74.04494476318359	1076.63037109375	31.84605407714844	-9.651901245117188	1205.59765625	464.01220703125	203.2446899414062	1250.94287109375	725.9557495117188	234.5889892578125	1128.860107421875	45.15314483642578	161.725830078125	1207.227783203125	337.0014953613281	183.5287933349609	1303.907348632812	27.71574783325195	90.00868225097656	1226.067993164062	34.07943344116211	65.083984375	1212.2197265625	34.80850982666016	163.8612365722656	1053.03466796875	37.34283447265625	113.0119552612305	
